<svg width="40" height="40" viewBox="0 0 40 40" fill="none" xmlns="http://www.w3.org/2000/svg">
<path d="M20 18.9806C18.4903 16.0445 14.3805 10.5736 10.5583 7.87642C6.8972 5.29168 5.50136 5.73892 4.5861 6.15418C3.52636 6.63058 3.33331 8.25835 3.33331 9.2139C3.33331 10.1722 3.85831 17.0611 4.19998 18.2126C5.33193 22.0126 9.35693 23.2959 13.0653 22.8848C7.63193 23.6903 2.80553 25.6694 9.1347 32.7153C16.0972 39.9236 18.6763 31.1694 20 26.7319C21.3236 31.1694 22.8471 39.6084 30.7403 32.7153C36.6666 26.7319 32.368 23.6903 26.9346 22.8848C30.643 23.2973 34.668 22.0126 35.8 18.2126C36.1416 17.0626 36.6666 10.1709 36.6666 9.2153C36.6666 8.25697 36.4736 6.63057 35.4138 6.15142C34.4986 5.73752 33.1028 5.2903 29.4416 7.87363C25.6195 10.575 21.5096 16.0459 20 18.9806Z" fill="white"/>
</svg>
