<svg width="40" height="40" viewBox="0 0 40 40" fill="none" xmlns="http://www.w3.org/2000/svg">
    <path
        d="M20.0017 3.33325C10.7933 3.33325 3.33496 10.7916 3.33496 19.9999C3.33496 27.3749 8.10579 33.6041 14.7308 35.8124C15.5641 35.9582 15.8766 35.4583 15.8766 35.0208C15.8766 34.6249 15.8558 33.3124 15.8558 31.9166C11.6683 32.6874 10.585 30.8958 10.2516 29.9583C10.0641 29.4791 9.25163 27.9999 8.54329 27.6041C7.95996 27.2916 7.12663 26.5208 8.52246 26.4999C9.83496 26.4791 10.7725 27.7083 11.085 28.2083C12.585 30.7291 14.9808 30.0208 15.9391 29.5833C16.085 28.4999 16.5225 27.7708 17.0017 27.3541C13.2933 26.9374 9.41829 25.4999 9.41829 19.1249C9.41829 17.3124 10.0641 15.8124 11.1266 14.6458C10.96 14.2291 10.3766 12.5208 11.2933 10.2291C11.2933 10.2291 12.6891 9.79158 15.8766 11.9374C17.21 11.5624 18.6267 11.3749 20.0433 11.3749C21.46 11.3749 22.8767 11.5624 24.21 11.9374C27.3975 9.77075 28.7933 10.2291 28.7933 10.2291C29.71 12.5208 29.1267 14.2291 28.96 14.6458C30.0225 15.8124 30.6683 17.2916 30.6683 19.1249C30.6683 25.5208 26.7725 26.9374 23.0642 27.3541C23.6683 27.8749 24.1892 28.8749 24.1892 30.4374C24.1892 32.6666 24.1683 34.4583 24.1683 35.0208C24.1683 35.4583 24.4808 35.9791 25.3142 35.8124C32.0983 33.5221 36.6665 27.1604 36.6683 19.9999C36.6683 10.7916 29.21 3.33325 20.0017 3.33325Z"
        fill="white" />
</svg>