<svg width="40" height="40" viewBox="0 0 40 40" fill="none" xmlns="http://www.w3.org/2000/svg">
<path d="M21.7135 3.33447C23.5892 3.33757 24.5397 3.34751 25.361 3.37196L25.6845 3.38252C26.0582 3.39581 26.4268 3.41247 26.8713 3.43331C28.6448 3.51526 29.8547 3.79581 30.9172 4.20831C32.0157 4.63192 32.9435 5.20414 33.8698 6.13054C34.7948 7.05692 35.3672 7.98747 35.7922 9.08331C36.2032 10.1444 36.4838 11.3555 36.5672 13.1291C36.587 13.5736 36.603 13.9423 36.6162 14.316L36.6267 14.6395C36.651 15.4607 36.6622 16.4114 36.6657 18.2871L36.667 19.5298C36.6672 19.6816 36.6672 19.8383 36.6672 19.9999L36.667 20.4701L36.666 21.7129C36.6628 23.5886 36.653 24.5393 36.6285 25.3604L36.6178 25.6839C36.6047 26.0578 36.588 26.4264 36.5672 26.8708C36.4852 28.6444 36.2032 29.8541 35.7922 30.9166C35.3685 32.0153 34.7948 32.9431 33.8698 33.8694C32.9435 34.7944 32.0115 35.3666 30.9172 35.7916C29.8547 36.2028 28.6448 36.4833 26.8713 36.5666C26.4268 36.5864 26.0582 36.6026 25.6845 36.6156L25.361 36.6261C24.5397 36.6506 23.5892 36.6616 21.7135 36.6653L20.4707 36.6666C20.3188 36.6666 20.1622 36.6666 20.0005 36.6666H19.5303L18.2875 36.6654C16.4118 36.6624 15.4612 36.6524 14.6399 36.6279L14.3165 36.6174C13.9427 36.6041 13.5741 36.5874 13.1296 36.5666C11.356 36.4848 10.1477 36.2028 9.0838 35.7916C7.98656 35.3681 7.05739 34.7944 6.13101 33.8694C5.20463 32.9431 4.63379 32.0111 4.20879 30.9166C3.79629 29.8541 3.51713 28.6444 3.43379 26.8708C3.41399 26.4264 3.39784 26.0578 3.38476 25.6839L3.37428 25.3604C3.34989 24.5393 3.33878 23.5886 3.33518 21.7129L3.33496 18.2871C3.33806 16.4114 3.34798 15.4607 3.37243 14.6395L3.38301 14.316C3.39629 13.9423 3.41296 13.5736 3.43379 13.1291C3.51573 11.3541 3.79629 10.1458 4.20879 9.08331C4.63239 7.98609 5.20463 7.05692 6.13101 6.13054C7.05739 5.20414 7.98796 4.63331 9.0838 4.20831C10.1463 3.79581 11.3546 3.51664 13.1296 3.43331C13.5741 3.41352 13.9427 3.39737 14.3165 3.38429L14.6399 3.37381C15.4612 3.34941 16.4118 3.33829 18.2875 3.33469L21.7135 3.33447ZM20.0005 11.6666C15.3956 11.6666 11.6671 15.3992 11.6671 19.9999C11.6671 24.6048 15.3997 28.3333 20.0005 28.3333C24.6053 28.3333 28.3338 24.6008 28.3338 19.9999C28.3338 15.3951 24.6012 11.6666 20.0005 11.6666ZM20.0005 15C22.762 15 25.0005 17.2378 25.0005 19.9999C25.0005 22.7614 22.7627 24.9999 20.0005 24.9999C17.239 24.9999 15.0005 22.7623 15.0005 19.9999C15.0005 17.2384 17.2382 15 20.0005 15ZM28.7505 9.16664C27.6017 9.16664 26.6672 10.0998 26.6672 11.2486C26.6672 12.3973 27.6003 13.3319 28.7505 13.3319C29.8992 13.3319 30.8338 12.3988 30.8338 11.2486C30.8338 10.0998 29.8977 9.16521 28.7505 9.16664Z" fill="white"/>
</svg>
