<svg width="40" height="40" viewBox="0 0 40 40" fill="none" xmlns="http://www.w3.org/2000/svg">
<path d="M20.4065 6.66675C21.2966 6.67165 23.5238 6.69318 25.8901 6.78796L26.7291 6.82455C29.1116 6.93735 31.4921 7.13005 32.6728 7.45925C34.2476 7.90166 35.4855 9.19258 35.9038 10.8289C36.57 13.4274 36.6533 18.4991 36.6636 19.7264L36.6651 19.9807V19.9986C36.6651 19.9986 36.6651 20.0047 36.6651 20.0166L36.6636 20.2709C36.6533 21.4982 36.57 26.5699 35.9038 29.1684C35.4796 30.8107 34.2418 32.1017 32.6728 32.5381C31.4921 32.8673 29.1116 33.0599 26.7291 33.1728L25.8901 33.2093C23.5238 33.3041 21.2966 33.3256 20.4065 33.3306L20.0158 33.3319H19.9985C19.9985 33.3319 19.9926 33.3319 19.9811 33.3319L19.5908 33.3306C17.7068 33.3202 9.82951 33.2351 7.32416 32.5381C5.74931 32.0956 4.51151 30.8047 4.0931 29.1684C3.42698 26.5699 3.34371 21.4982 3.33331 20.2709V19.7264C3.34371 18.4991 3.42698 13.4274 4.0931 10.8289C4.51731 9.18652 5.75511 7.89561 7.32416 7.45925C9.82951 6.76213 17.7068 6.67711 19.5908 6.66675H20.4065ZM16.6652 14.1653V25.8319L26.6651 19.9986L16.6652 14.1653Z" fill="white"/>
</svg>
